<?xml version="1.0" encoding="utf-8"?>
<!-- Generator: Adobe Illustrator 18.1.0, SVG Export Plug-In . SVG Version: 6.00 Build 0)  -->
<svg version="1.1" id="Layer_1" xmlns="http://www.w3.org/2000/svg" xmlns:xlink="http://www.w3.org/1999/xlink" x="0px" y="0px"
	 viewBox="0 180 612 612" enable-background="new 0 180 612 612" xml:space="preserve">
<path fill="#FFFFFF" d="M522.3,269.7C580.1,327.4,610,399.5,612,486c-2,86.5-31.9,158.6-89.7,216.3C464.6,760.1,392.5,790,306,792
	c-86.5-2-158.6-31.9-216.3-89.7C31.9,644.6,2,572.5,0,486c2-86.5,31.9-158.6,89.7-216.3C147.4,211.9,219.5,182,306,180
	C392.5,182,464.6,211.9,522.3,269.7z"/>
<path d="M407.6,274.9c-4.1-0.8-11.3-1.5-21.7-2.1c-10.4-0.6-22.7-0.9-37-0.9c-29.4,0-52.9,8.6-70.7,25.7
	c-17.7,17.1-26.8,42-27.2,74.7v56.3h-66.1V505H251v195.2h78.3V505h65.5l10.4-76.5h-75.9v-48.3c-0.4-11,1.9-20,7-26.9
	s15.4-10.4,30.9-10.4h40.4L407.6,274.9L407.6,274.9z"/>
</svg>
