<?xml version="1.0" encoding="utf-8"?>
<!-- Generator: Adobe Illustrator 18.1.0, SVG Export Plug-In . SVG Version: 6.00 Build 0)  -->
<svg version="1.1" id="Layer_1" xmlns="http://www.w3.org/2000/svg" xmlns:xlink="http://www.w3.org/1999/xlink" x="0px" y="0px"
	 viewBox="0 180 612 612" enable-background="new 0 180 612 612" xml:space="preserve">
<path fill="#FFFFFF" d="M522.3,269.7C580.1,327.4,610,399.5,612,486c-2,86.5-31.9,158.6-89.7,216.3C464.6,760.1,392.5,790,306,792
	c-86.5-2-158.6-31.9-216.3-89.7C31.9,644.6,2,572.5,0,486c2-86.5,31.9-158.6,89.7-216.3C147.4,211.9,219.5,182,306,180
	C392.5,182,464.6,211.9,522.3,269.7z"/>
<path d="M197.7,378c8.2-8.4,12.2-18.8,12.2-31.2c0-12.4-4.1-22.8-12.2-31.2c-8.2-8.4-18.6-12.5-31.2-12.5
	c-12.7,0-23.1,4.3-31.2,12.9c-8.2,8.6-12.2,19-12.2,31.2c0,12.2,4.1,22.5,12.2,30.9c8.2,8.4,18.6,12.8,31.2,13.2
	C179.1,390.7,189.5,386.3,197.7,378z"/>
<rect x="128.5" y="424.2" width="75.9" height="244.8"/>
<path d="M489.6,669V535c1.2-33.9-4.3-61.6-16.5-83.2S436,419,398.4,418.1c-18.8,0.4-34.2,4.7-46.2,12.9c-12,8.2-20.7,17.1-26,26.9
	h-0.6v-33.7h-73.4V669h76.5V547.8c-0.4-16.7,2.2-31.2,8-43.5c5.7-12.2,18.1-18.6,37.3-19c18.8,0.8,30.3,8.1,34.6,21.7
	c4.3,13.7,6,28.1,5.2,43.1V669H489.6z"/>
</svg>
