<?xml version="1.0" encoding="utf-8"?>
<!-- Generator: Adobe Illustrator 18.1.0, SVG Export Plug-In . SVG Version: 6.00 Build 0)  -->
<svg version="1.1" id="Layer_1" xmlns="http://www.w3.org/2000/svg" xmlns:xlink="http://www.w3.org/1999/xlink" x="0px" y="0px"
	 viewBox="0 180 612 612" enable-background="new 0 180 612 612" xml:space="preserve">
<path fill="#FFFFFF" d="M522.3,269.7C580.1,327.4,610,399.5,612,486c-2,86.5-31.9,158.6-89.7,216.3C464.6,760.1,392.5,790,306,792
	c-86.5-2-158.6-31.9-216.3-89.7C31.9,644.6,2,572.5,0,486c2-86.5,31.9-158.6,89.7-216.3C147.4,211.9,219.5,182,306,180
	C392.5,182,464.6,211.9,522.3,269.7z"/>
<path d="M504.9,367.3c-14.7,6.5-30.4,10.8-47.1,12.9c8.6-4.9,15.9-11.2,22-19c6.1-7.7,10.8-16.3,14.1-25.7
	c-15.9,9.4-33.3,15.9-52,19.6c-7.3-8.2-16.1-14.5-26.3-19c-10.2-4.5-21.2-6.7-33-6.7c-23.3,0.4-42.5,8.4-57.8,23.9
	s-23.2,34.7-23.6,57.5c0,6.5,0.6,12.9,1.8,19c-34.3-2-65.8-10.6-94.6-25.7s-53.1-35.1-73.1-60c-7.3,12.2-11.1,25.8-11.3,40.7
	c-0.2,14.9,3.1,28.2,9.8,39.8c6.7,11.6,15.6,21.1,26.6,28.5c-13.5-0.4-25.9-3.7-37.3-9.8v0.6c0.4,20.4,6.6,37.8,18.7,52.3
	c12,14.5,27.6,23.8,46.8,27.8c-6.9,2-14.1,3.1-21.4,3.1c-4.9,0-10-0.6-15.3-1.8c5.3,16.3,14.8,29.7,28.5,40.1
	c13.7,10.4,29.7,16,48,16.8c-14.3,11-30,19.6-47.1,25.7s-35.3,9.2-54.5,9.2c-6.1,0-12.7-0.4-19.6-1.2c17.9,11.8,37.5,20.9,58.8,27.2
	c21.2,6.3,43.5,9.5,66.7,9.5c75.1-2.8,132.4-28,172-75.6c39.6-47.5,59.6-99.7,60-156.4c0-3.7-0.2-7.1-0.6-10.4
	C480.2,398.3,493.9,384,504.9,367.3z"/>
</svg>
