<?xml version="1.0" encoding="utf-8"?>
<!-- Generator: Adobe Illustrator 18.1.0, SVG Export Plug-In . SVG Version: 6.00 Build 0)  -->
<svg version="1.1" id="Layer_1" xmlns="http://www.w3.org/2000/svg" xmlns:xlink="http://www.w3.org/1999/xlink" x="0px" y="0px"
	 viewBox="0 179.9 612 612.2" enable-background="new 0 179.9 612 612.2" xml:space="preserve">
<g id="Layer_1_copy">
	<path fill="#FFFFFF" d="M522.3,269.6c57.8,57.8,87.6,129.8,89.7,216.4c-2.1,86.4-31.9,158.6-89.7,216.4
		c-57.8,57.8-129.8,87.6-216.4,89.7c-86.4-2.1-158.6-31.9-216.4-89.7c-57.6-58-87.4-130-89.5-216.6c2.1-86.4,31.9-158.6,89.7-216.4
		c57.6-57.6,129.8-87.4,216.2-89.5C392.5,182,464.5,211.8,522.3,269.6z"/>
	<path d="M489.3,617.7c0.6-14.8,0.8-29.6,0.8-44c0-14.4-0.2-29-0.8-43.8c-0.6-14.8-2.3-29-5.2-42.8c-2.5-9.8-7.3-18.2-14.4-24.8
		c-7.1-6.7-15.6-10.6-25.5-11.9c-23-2.5-45.9-4-69.1-4.4s-46.3-0.6-69.5-0.6c-23,0-46.1,0.2-69.1,0.6s-45.9,1.9-68.9,4.4
		c-9.8,1.3-18.4,5.2-25.5,11.9c-7.1,6.7-11.9,15-14.4,24.8c-3.3,13.8-5.2,28.2-5.8,42.8s-0.8,29.2-0.8,43.8c0,14.4,0.2,29.2,0.8,44
		c0.6,14.8,2.5,29.4,5.8,43.8c2.5,9.8,7.3,17.9,14.4,24.4s15.6,10.4,25.5,11.7c22.7,2.5,45.7,4,68.9,4.4c23,0.4,46.1,0.6,69.1,0.6
		s46.1-0.2,69.5-0.6c23.2-0.4,46.3-1.9,69.1-4.4c9.8-1.3,18.2-5,25.5-11.7c7.1-6.5,11.9-14.6,14.4-24.4
		C486.8,647.1,488.7,632.7,489.3,617.7z"/>
	<polygon fill="#FFFFFF" points="148.8,512.1 175.1,512.1 175.1,654.2 200.1,654.2 200.1,512.1 226.4,512.1 226.4,488.9 
		148.8,488.9 	"/>
	<path fill="#FFFFFF" d="M271.7,624.8c-4.8,6.9-9.6,10.4-14,10.4c-2.9,0-4.6-1.7-5.4-4.8v-99.9h-22.1v97.2c0,9,0.6,15,1.9,18.4
		c2.5,6.5,7.1,9.6,14,9.2c8.1,0,16.7-4.8,25.7-14.6v13.6h22.1V530.4h-22.1v94.4H271.7z"/>
	<path fill="#FFFFFF" d="M376.2,543.4c1.7,4.8,2.5,13.1,2.5,24.4v49c0,11.5-0.8,19.8-2.5,25c-2.9,9-8.8,13.6-17.7,13.6
		c-7.7,0-15.4-4.4-23.2-13.6v12.3h-22.1V488.9h22.1v53.8c7.3-9,15-13.6,23.2-13.6C367.5,529.2,373.5,534,376.2,543.4z"/>
	<path d="M356.2,565.9c0-11.1-3.3-16.5-9.8-16.5c-3.8,0-7.3,1.9-11.1,5.4v74.7c3.8,3.8,7.3,5.4,11.1,5.4c6.5,0,9.8-5.4,9.8-16.5
		V565.9z"/>
	<path d="M181.7,255.9l16.5,46.3c8.1,23.2,13.1,40.9,14.6,52.6v68h25V355l30-99.1h-25l-17.1,65.5L208,255.9H181.7z"/>
	<path d="M334.7,338.9c0.4-13.6-1.9-23.2-6.7-29.4c-6.1-8.6-14.8-12.9-26.1-12.9s-20,4.4-26.7,12.9c-4.6,6.1-6.7,15.9-6.7,29.4v43.4
		c0,13.6,2.3,23.2,6.7,29.4c6.5,8.6,15.4,12.9,26.7,12.9c11.3,0,19.8-4.4,26.1-12.9c4.8-6.1,7.1-15.9,6.7-29.4V338.9z M312.8,386.7
		c0,11.5-3.8,17.1-11.1,17.1s-11.1-5.6-11.1-17.1v-52.6c0-11.5,3.8-17.1,11.1-17.1s11.1,5.6,11.1,17.1V386.7z"/>
	<path d="M353.7,396.5c0,8.6,0.6,14.8,1.9,19c2.5,6.1,7.5,9.2,15.2,9s16.1-5.2,25-15v13.6h22.7V298.6h-22.7v94.9
		c-4.8,6.9-9.6,10.4-14,10.4c-2.9,0-4.6-1.7-5.4-4.8c-0.4-0.8-0.6-4-0.6-9.2v-91.4h-22.1V396.5L353.7,396.5z"/>
	<path fill="#FFFFFF" d="M462.6,570.9v25.7h-44.7v21.5c0.4,11.5,4.4,17.1,11.7,17.1c5.2,0,8.6-2.9,9.8-8.6c0.4-1.3,0.6-6.3,0.6-15.2
		h22.7v17.7c-1.3,4.8-3.1,9.4-5.4,13.6c-6.1,8.6-15,12.9-26.9,12.9s-20.9-4.2-26.9-12.3c-4.8-6.1-7.3-15.9-7.3-29.4v-42.8
		c0-13.1,2.3-22.7,6.7-28.8c6.5-8.6,15.4-12.9,26.9-12.9s20.2,4.4,26.3,12.9C460.7,548.2,463,557.8,462.6,570.9z"/>
	<path d="M440.5,566.5c0-11.5-3.8-17.1-11.1-17.1s-11.1,5.6-11.1,17.1v11.1h22.1v-11.1H440.5z"/>
</g>
</svg>
